<?xml version='1.0' encoding='iso-8859-1'?>
<svg version="1.1" xmlns="http://www.w3.org/2000/svg" viewBox="0 0 32 32" xmlns:xlink="http://www.w3.org/1999/xlink" enable-background="new 0 0 32 32">
  <path d="m32,16c0-8.8-7.2-16-16-16s-16,7.2-16,16 7.2,16 16,16c5.9,0 8.8,0 10.6-1.3 1.5-1.1 2.2-2.7 4.3-8.9 0.7-1.8 1.1-3.7 1.1-5.8zm-2.3,3c-1.4,4.9-4.2,5.8-6.2,7.2-2.6,1.8-5,3.9-7.5,3.9-7.7,0-14-6.3-14-14s6.3-14 14-14c3.4,0 6.6,1.3 9,3.3 0.8,0.7 1.5,3 0.1,4.3-2.9,2.9-7.2,6.9-8.2,7.9-3.1,3.1-5.7,0.6-7.4-1.1-0.3-0.3-0.9-0.8-1.6-0.8-1.1,0-2,0.9-2,2 0,0.9 0.6,1.5 1.4,1.9 5.2,2.5 4.4,5.1 6.6,5.1 2.1,0 2.8-4.3 4.8-6.1 1.1-1 4.6-4.5 7.2-7.1 1.5-1.5 4-0.8 4,4.5 0.1,1-3.55271e-15,2-0.2,3z"/>
</svg>
